<svg id="visual" viewBox="0 0 1600 750" width="1600" height="750" xmlns="http://www.w3.org/2000/svg" xmlns:xlink="http://www.w3.org/1999/xlink" version="1.1"><rect x="0" y="0" width="1600" height="750" fill="#000000"></rect><path d="M0 456L33.3 457.2C66.7 458.3 133.3 460.7 200 453.3C266.7 446 333.3 429 400 416.5C466.7 404 533.3 396 600 402.8C666.7 409.7 733.3 431.3 800 441.8C866.7 452.3 933.3 451.7 1000 453.2C1066.7 454.7 1133.3 458.3 1200 451.5C1266.7 444.7 1333.3 427.3 1400 428.5C1466.7 429.7 1533.3 449.3 1566.7 459.2L1600 469L1600 751L1566.7 751C1533.3 751 1466.7 751 1400 751C1333.3 751 1266.7 751 1200 751C1133.3 751 1066.7 751 1000 751C933.3 751 866.7 751 800 751C733.3 751 666.7 751 600 751C533.3 751 466.7 751 400 751C333.3 751 266.7 751 200 751C133.3 751 66.7 751 33.3 751L0 751Z" fill="#730f08"></path><path d="M0 531L33.3 524.8C66.7 518.7 133.3 506.3 200 512C266.7 517.7 333.3 541.3 400 547.3C466.7 553.3 533.3 541.7 600 535.2C666.7 528.7 733.3 527.3 800 530.5C866.7 533.7 933.3 541.3 1000 545.5C1066.7 549.7 1133.3 550.3 1200 541.5C1266.7 532.7 1333.3 514.3 1400 510.7C1466.7 507 1533.3 518 1566.7 523.5L1600 529L1600 751L1566.7 751C1533.3 751 1466.7 751 1400 751C1333.3 751 1266.7 751 1200 751C1133.3 751 1066.7 751 1000 751C933.3 751 866.7 751 800 751C733.3 751 666.7 751 600 751C533.3 751 466.7 751 400 751C333.3 751 266.7 751 200 751C133.3 751 66.7 751 33.3 751L0 751Z" fill="#620314"></path><path d="M0 610L33.3 607.7C66.7 605.3 133.3 600.7 200 599.5C266.7 598.3 333.3 600.7 400 599.5C466.7 598.3 533.3 593.7 600 584C666.7 574.3 733.3 559.7 800 553C866.7 546.3 933.3 547.7 1000 559.7C1066.7 571.7 1133.3 594.3 1200 605C1266.7 615.7 1333.3 614.3 1400 609C1466.7 603.7 1533.3 594.3 1566.7 589.7L1600 585L1600 751L1566.7 751C1533.3 751 1466.7 751 1400 751C1333.3 751 1266.7 751 1200 751C1133.3 751 1066.7 751 1000 751C933.3 751 866.7 751 800 751C733.3 751 666.7 751 600 751C533.3 751 466.7 751 400 751C333.3 751 266.7 751 200 751C133.3 751 66.7 751 33.3 751L0 751Z" fill="#4f0119"></path><path d="M0 675L33.3 669.2C66.7 663.3 133.3 651.7 200 649.8C266.7 648 333.3 656 400 660.2C466.7 664.3 533.3 664.7 600 666C666.7 667.3 733.3 669.7 800 665.3C866.7 661 933.3 650 1000 648.5C1066.7 647 1133.3 655 1200 658C1266.7 661 1333.3 659 1400 663C1466.7 667 1533.3 677 1566.7 682L1600 687L1600 751L1566.7 751C1533.3 751 1466.7 751 1400 751C1333.3 751 1266.7 751 1200 751C1133.3 751 1066.7 751 1000 751C933.3 751 866.7 751 800 751C733.3 751 666.7 751 600 751C533.3 751 466.7 751 400 751C333.3 751 266.7 751 200 751C133.3 751 66.7 751 33.3 751L0 751Z" fill="#3a0319"></path></svg>